<?xml version="1.0" encoding="UTF-8"?><svg id="Camada_2" xmlns="http://www.w3.org/2000/svg" viewBox="0 0 201.57 198.76"><defs><style>.cls-1{fill:#fff;}</style></defs><g id="Camada_1-2"><g><path class="cls-1" d="M72.28,107.28c.23-.53,5.68-13.05,20.01-13.05,10.65,0,17.64,8.83,23.81,16.63,4.59,5.8,8.93,11.28,13.36,11.28,2.96,0,4.46-1.42,4.46-4.21,0-3.57-6.19-7.65-8.52-9.19-.41-.27-.76-.5-1.04-.7-8.34-5.81-11.28-14.16-8.51-24.17l13.35-48.1,2.15-8.44h-10.25l-9.32,7.14,11.8-13.35,.31-4.04-9.01-12.73-5.28,10.25-33.23,4.97-3.42-13.35-4.35-6.21-22.98,5.9,6.21,11.18-13.66,6.83-5.9-7.14-13.35,2.48,.93,31.37-14.6,3.42L0,67.7l9.32,13.98,8.39-4.04,.62,9.01,10.87-1.24,15.22-8.7,.31,11.8,8.7,4.66,16.15,4.35,2.48,12.11,.19,.02c-.29-.76-.28-1.61,.04-2.37Z"/><path class="cls-1" d="M130.64,157.67c-13.26,0-25.34-8.8-33.14-24.14-4.76-9.37-10.06-15.82-15.8-19.29l2.18,26.13,10.25,1.24,2.17,8.7,4.97-.62,3.11,16.15-16.15,15.53,18.63,17.39,23.29-31.68,.51-9.41h-.02Z"/><path class="cls-1" d="M136.57,23.58c2.73,1.52,12.02,7.68,12.02,18.8,0,9.84-15.87,39.21-9.73,46.84l39.39-49.1s9.78,11.92,3.91,22c-6.1,10.48-21.18,22.77-27.22,31.9-3.73,5.65-1.92,8.67-1.92,8.67l47.74-26.15s3.83,11.37-5.25,19.56c-9.59,8.63-32.17,12.06-32.17,21.06h32.79s-3.35,9.94-9.69,11.33c-5.59,1.23-17.55-2.03-23.18,3.05-5.95,5.36-12.64,22.98-32.61,22.98-13.43,0-23.84-9.68-30.31-22.4-7.47-14.7-15.85-21.78-24.48-23.58,0,0,4.69-11.11,17.09-11.11,17.03,0,24.32,27.91,37.17,27.91,3.7,0,7.64-1.93,7.64-7.39,0-5.93-8.54-10.83-10.92-12.49-5.66-3.94-10.18-10.2-7.27-20.72l16.98-61.16"/></g></g></svg>